<mxfile host="65bd71144e">
    <diagram id="s-5mIXKOr0SX4eYtKtyb" name="Page-1">
        <mxGraphModel dx="1204" dy="445" grid="1" gridSize="10" guides="1" tooltips="1" connect="1" arrows="1" fold="1" page="1" pageScale="1" pageWidth="850" pageHeight="1100" math="0" shadow="0">
            <root>
                <mxCell id="0"/>
                <mxCell id="1" parent="0"/>
                <mxCell id="12" value="" style="rounded=0;whiteSpace=wrap;html=1;labelBackgroundColor=#FF0000;fillColor=#f5f5f5;fontColor=#333333;strokeColor=#666666;" parent="1" vertex="1">
                    <mxGeometry width="840" height="1030" as="geometry"/>
                </mxCell>
                <mxCell id="15" value="Header" style="rounded=0;whiteSpace=wrap;html=1;labelBackgroundColor=none;fillColor=none;strokeWidth=3;strokeColor=#000000;fontColor=#000000;labelBorderColor=none;fontSize=28;" parent="1" vertex="1">
                    <mxGeometry x="10" y="10" width="820" height="60" as="geometry"/>
                </mxCell>
                <mxCell id="17" value="Header" style="rounded=0;whiteSpace=wrap;html=1;labelBackgroundColor=none;fillColor=none;strokeWidth=3;strokeColor=#000000;" parent="1" vertex="1">
                    <mxGeometry x="10" y="80" width="820" height="60" as="geometry"/>
                </mxCell>
                <mxCell id="18" value="Header" style="rounded=0;whiteSpace=wrap;html=1;labelBackgroundColor=none;fillColor=none;strokeWidth=3;strokeColor=#000000;" parent="1" vertex="1">
                    <mxGeometry x="10" y="150" width="820" height="870" as="geometry"/>
                </mxCell>
                <mxCell id="19" value="" style="rounded=0;whiteSpace=wrap;html=1;labelBackgroundColor=none;fillColor=none;strokeWidth=3;strokeColor=#000000;" parent="1" vertex="1">
                    <mxGeometry x="20" y="160" width="260" height="160" as="geometry"/>
                </mxCell>
                <mxCell id="27" value="Paragraph of text." style="rounded=0;whiteSpace=wrap;html=1;labelBackgroundColor=none;fillColor=none;strokeWidth=3;strokeColor=#000000;fontColor=#000000;" parent="1" vertex="1">
                    <mxGeometry x="40" y="90" width="760" height="40" as="geometry"/>
                </mxCell>
                <mxCell id="28" value="" style="rounded=0;whiteSpace=wrap;html=1;labelBackgroundColor=none;fillColor=none;strokeWidth=3;strokeColor=#000000;" parent="1" vertex="1">
                    <mxGeometry x="295" y="160" width="260" height="160" as="geometry"/>
                </mxCell>
                <mxCell id="29" value="" style="rounded=0;whiteSpace=wrap;html=1;labelBackgroundColor=none;fillColor=none;strokeWidth=3;strokeColor=#000000;" parent="1" vertex="1">
                    <mxGeometry x="560" y="160" width="260" height="160" as="geometry"/>
                </mxCell>
                <mxCell id="30" value="" style="rounded=0;whiteSpace=wrap;html=1;labelBackgroundColor=none;fillColor=none;strokeWidth=3;strokeColor=#000000;" parent="1" vertex="1">
                    <mxGeometry x="20" y="330" width="260" height="160" as="geometry"/>
                </mxCell>
                <mxCell id="31" value="" style="rounded=0;whiteSpace=wrap;html=1;labelBackgroundColor=none;fillColor=none;strokeWidth=3;strokeColor=#000000;" parent="1" vertex="1">
                    <mxGeometry x="290" y="330" width="260" height="160" as="geometry"/>
                </mxCell>
                <mxCell id="32" value="" style="rounded=0;whiteSpace=wrap;html=1;labelBackgroundColor=none;fillColor=none;strokeWidth=3;strokeColor=#000000;" parent="1" vertex="1">
                    <mxGeometry x="560" y="330" width="260" height="160" as="geometry"/>
                </mxCell>
                <mxCell id="36" value="Title" style="rounded=0;whiteSpace=wrap;html=1;fillColor=#0050ef;fontColor=#ffffff;strokeColor=#000000;fontSize=24;strokeWidth=4;" parent="1" vertex="1">
                    <mxGeometry x="40" y="320" width="220" height="30" as="geometry"/>
                </mxCell>
                <mxCell id="39" value="Code Snippet" style="rounded=0;whiteSpace=wrap;html=1;fontSize=24;strokeWidth=5;strokeColor=#FF3333;" parent="1" vertex="1">
                    <mxGeometry x="30" y="220" width="240" height="90" as="geometry"/>
                </mxCell>
                <mxCell id="40" value="Code Snippet" style="rounded=0;whiteSpace=wrap;html=1;fontSize=24;strokeWidth=5;strokeColor=#FF3333;" parent="1" vertex="1">
                    <mxGeometry x="305" y="220" width="240" height="90" as="geometry"/>
                </mxCell>
                <mxCell id="41" value="Code Snippet" style="rounded=0;whiteSpace=wrap;html=1;fontSize=24;strokeWidth=5;strokeColor=#FF3333;" parent="1" vertex="1">
                    <mxGeometry x="570" y="220" width="240" height="90" as="geometry"/>
                </mxCell>
                <mxCell id="42" value="Code Snippet" style="rounded=0;whiteSpace=wrap;html=1;fontSize=24;strokeWidth=5;strokeColor=#FF3333;" parent="1" vertex="1">
                    <mxGeometry x="30" y="390" width="240" height="90" as="geometry"/>
                </mxCell>
                <mxCell id="43" value="Code Snippet" style="rounded=0;whiteSpace=wrap;html=1;fontSize=24;strokeWidth=5;strokeColor=#FF3333;" parent="1" vertex="1">
                    <mxGeometry x="300" y="390" width="240" height="90" as="geometry"/>
                </mxCell>
                <mxCell id="44" value="Code Snippet" style="rounded=0;whiteSpace=wrap;html=1;fontSize=24;strokeWidth=5;strokeColor=#FF3333;" parent="1" vertex="1">
                    <mxGeometry x="570" y="390" width="240" height="90" as="geometry"/>
                </mxCell>
                <mxCell id="45" value="Title" style="rounded=0;whiteSpace=wrap;html=1;fillColor=#0050ef;fontColor=#ffffff;strokeColor=#000000;fontSize=24;strokeWidth=4;" parent="1" vertex="1">
                    <mxGeometry x="310" y="320" width="220" height="30" as="geometry"/>
                </mxCell>
                <mxCell id="46" value="Title" style="rounded=0;whiteSpace=wrap;html=1;fillColor=#0050ef;fontColor=#ffffff;strokeColor=#000000;fontSize=24;strokeWidth=4;" parent="1" vertex="1">
                    <mxGeometry x="580" y="320" width="220" height="30" as="geometry"/>
                </mxCell>
                <mxCell id="47" value="Title" style="rounded=0;whiteSpace=wrap;html=1;fillColor=#0050ef;fontColor=#ffffff;strokeColor=#000000;fontSize=24;strokeWidth=4;labelBackgroundColor=default;labelBorderColor=default;" parent="1" vertex="1">
                    <mxGeometry x="40" y="150" width="220" height="30" as="geometry"/>
                </mxCell>
                <mxCell id="48" value="Title" style="rounded=0;whiteSpace=wrap;html=1;fillColor=#0050ef;fontColor=#ffffff;strokeColor=#000000;fontSize=24;strokeWidth=4;" parent="1" vertex="1">
                    <mxGeometry x="315" y="150" width="220" height="30" as="geometry"/>
                </mxCell>
                <mxCell id="49" value="Title" style="rounded=0;whiteSpace=wrap;html=1;fillColor=#0050ef;fontColor=#ffffff;strokeColor=#000000;fontSize=24;strokeWidth=4;" parent="1" vertex="1">
                    <mxGeometry x="580" y="150" width="220" height="30" as="geometry"/>
                </mxCell>
                <mxCell id="50" value="" style="rounded=0;whiteSpace=wrap;html=1;fontSize=24;strokeColor=#000000;strokeWidth=4;align=left;" parent="1" vertex="1">
                    <mxGeometry x="30" y="180" width="240" height="40" as="geometry"/>
                </mxCell>
                <mxCell id="52" value="" style="rounded=0;whiteSpace=wrap;html=1;fontSize=24;strokeColor=#000000;strokeWidth=4;" vertex="1" parent="1">
                    <mxGeometry x="305" y="180" width="240" height="40" as="geometry"/>
                </mxCell>
                <mxCell id="53" value="" style="rounded=0;whiteSpace=wrap;html=1;fontSize=24;strokeColor=#000000;strokeWidth=4;" vertex="1" parent="1">
                    <mxGeometry x="570" y="180" width="240" height="40" as="geometry"/>
                </mxCell>
            </root>
        </mxGraphModel>
    </diagram>
</mxfile>